<svg width="1600" height="520" viewBox="0 0 1600 520" fill="none" xmlns="http://www.w3.org/2000/svg">
  <defs>
    <linearGradient id="banner-bg" x1="88" y1="56" x2="1458" y2="494" gradientUnits="userSpaceOnUse">
      <stop stop-color="#F7F2E6"/>
      <stop offset="0.55" stop-color="#EEF5F2"/>
      <stop offset="1" stop-color="#E4EEFF"/>
    </linearGradient>
    <linearGradient id="banner-accent" x1="362" y1="166" x2="572" y2="378" gradientUnits="userSpaceOnUse">
      <stop stop-color="#28A8A2"/>
      <stop offset="1" stop-color="#2563EB"/>
    </linearGradient>
    <linearGradient id="banner-card" x1="176" y1="120" x2="406" y2="386" gradientUnits="userSpaceOnUse">
      <stop stop-color="#FFFFFF"/>
      <stop offset="1" stop-color="#F5F7FB"/>
    </linearGradient>
    <filter id="banner-shadow" x="128" y="98" width="372" height="358" filterUnits="userSpaceOnUse" color-interpolation-filters="sRGB">
      <feFlood flood-opacity="0" result="BackgroundImageFix"/>
      <feColorMatrix in="SourceAlpha" type="matrix" values="0 0 0 0 0 0 0 0 0 0 0 0 0 0 0 0 0 0 127 0" result="hardAlpha"/>
      <feOffset dy="24"/>
      <feGaussianBlur stdDeviation="22"/>
      <feColorMatrix type="matrix" values="0 0 0 0 0.145098 0 0 0 0 0.2 0 0 0 0 0.341176 0 0 0 0.15 0"/>
      <feBlend mode="normal" in2="BackgroundImageFix" result="effect1_dropShadow_0_1"/>
      <feBlend mode="normal" in="SourceGraphic" in2="effect1_dropShadow_0_1" result="shape"/>
    </filter>
  </defs>

  <rect x="20" y="20" width="1560" height="480" rx="72" fill="url(#banner-bg)"/>
  <circle cx="1452" cy="104" r="42" fill="#D9EFF2"/>
  <circle cx="1304" cy="422" r="26" fill="#D9E7FF"/>
  <circle cx="112" cy="410" r="20" fill="#E8F3E9"/>
  <path d="M1388 138C1388 122.536 1400.54 110 1416 110V110C1431.46 110 1444 122.536 1444 138V138C1444 153.464 1431.46 166 1416 166V166C1400.54 166 1388 153.464 1388 138V138Z" fill="#BFE9E4"/>

  <g filter="url(#banner-shadow)">
    <path d="M170 134C170 120.745 180.745 110 194 110H334.118C340.483 110 346.588 112.529 351.088 117.029L419.971 185.912C424.471 190.412 427 196.517 427 202.882V348C427 361.255 416.255 372 403 372H194C180.745 372 170 361.255 170 348V134Z" fill="url(#banner-card)"/>
    <path d="M344 111.409V174C344 183.941 352.059 192 362 192H424.591" stroke="#C6D5E9" stroke-width="14" stroke-linecap="round" stroke-linejoin="round"/>
  </g>

  <rect x="220" y="182" width="110" height="16" rx="8" fill="#D9E5F5"/>
  <rect x="220" y="218" width="146" height="16" rx="8" fill="#D9E5F5"/>
  <rect x="220" y="254" width="118" height="16" rx="8" fill="#D9E5F5"/>

  <circle cx="404" cy="302" r="110" fill="url(#banner-accent)"/>
  <path d="M360 316C360 304.954 368.954 296 380 296H423V253C423 241.954 431.954 233 443 233C454.046 233 463 241.954 463 253V344C463 355.046 454.046 364 443 364H352C340.954 364 332 355.046 332 344C332 332.954 340.954 324 352 324H395.096L328.18 257.084C320.37 249.274 320.37 236.611 328.18 228.801C335.99 220.991 348.652 220.991 356.462 228.801L423.378 295.717V252.5" fill="white"/>
  <path d="M276 326L246 356" stroke="#28A8A2" stroke-width="18" stroke-linecap="round"/>
  <path d="M306 296L276 326" stroke="#28A8A2" stroke-width="18" stroke-linecap="round"/>

  <text x="648" y="208" fill="#17304A" font-family="SF Pro Display, PingFang SC, Microsoft YaHei, sans-serif" font-size="74" font-weight="700" letter-spacing="0.5">
    SiYuan To Wiki
  </text>
  <text x="650" y="272" fill="#41607F" font-family="SF Pro Display, PingFang SC, Microsoft YaHei, sans-serif" font-size="32" font-weight="500">
    思源笔记内容一键发布到 Wiki
  </text>
  <text x="650" y="334" fill="#5E7892" font-family="SF Pro Display, PingFang SC, Microsoft YaHei, sans-serif" font-size="24" font-weight="500">
    配置 API 后，支持测试连接、发布、更新、日志查看与已发布记录管理
  </text>

  <g>
    <rect x="650" y="376" width="188" height="48" rx="24" fill="#FFFFFF" fill-opacity="0.82"/>
    <text x="686" y="407" fill="#1E4E79" font-family="SF Pro Display, PingFang SC, Microsoft YaHei, sans-serif" font-size="22" font-weight="600">
      Publish
    </text>
    <circle cx="798" cy="400" r="6" fill="#28A8A2"/>
  </g>
  <g>
    <rect x="854" y="376" width="176" height="48" rx="24" fill="#FFFFFF" fill-opacity="0.82"/>
    <text x="890" y="407" fill="#1E4E79" font-family="SF Pro Display, PingFang SC, Microsoft YaHei, sans-serif" font-size="22" font-weight="600">
      Manage
    </text>
    <circle cx="988" cy="400" r="6" fill="#2563EB"/>
  </g>
  <g>
    <rect x="1048" y="376" width="144" height="48" rx="24" fill="#FFFFFF" fill-opacity="0.82"/>
    <text x="1084" y="407" fill="#1E4E79" font-family="SF Pro Display, PingFang SC, Microsoft YaHei, sans-serif" font-size="22" font-weight="600">
      Sync
    </text>
    <circle cx="1160" cy="400" r="6" fill="#3CB8AF"/>
  </g>
</svg>
